<svg enable-background="new 0 0 128 128" viewBox="0 0 128 128" xmlns="http://www.w3.org/2000/svg"><g id="Crocodile"/><g id="Kangaroo"/><g id="Flamingo"/><g id="Eagle"/><g id="Tapir"/><g id="Pangolin"/><g id="Hedgehog"><g><path d="m121.896 70.79c-.626-.867-1.579-1.503-2.686-1.789-1.106-.285-2.25-.189-3.218.267-1.032.487-1.746 1.319-2.01 2.341-.048.182-.078.368-.095.556-1.517-.423-2.595-1.029-3.133-1.785-1.633-2.288-1.893-5.43-1.945-7.59-.017-.799-.01-1.6-.003-2.4.019-2.07.037-4.211-.354-6.325-.312-1.642-.868-3.244-1.647-4.751-.486-.973-1.082-1.922-1.808-2.896-1.84-6.857-5.683-13.306-10.577-17.718-.336-.304-.83-.33-1.21-.087-.38.246-.544.728-.404 1.158.188.582.994 3.224 1.39 6.879-.118-.127-.238-.254-.357-.382-2.862-3.052-7.653-8.159-11.189-10.248-.396-.233-.892-.154-1.212.172-.322.326-.373.844-.135 1.235.372.612 1.92 3.196 3.635 6.608-.567-.468-1.169-.967-1.765-1.462-4.239-3.519-10.045-8.339-13.364-10.096-.404-.214-.906-.124-1.214.218-.307.343-.339.852-.079 1.23.032.048 2.822 4.142 5.476 9.293-1.253-.747-2.795-1.714-4.162-2.571-4.009-2.514-8.554-5.363-11.301-6.482-.424-.174-.895-.015-1.165.354-.271.368-.24.896.051 1.249.691.84 2.669 3.292 4.866 6.474-5.123-2.492-13.773-5.427-19.873-4.54-.412.06-.743.368-.833.774s.082.825.431 1.053c.047.03 3.95 2.587 8.231 6.17-11.38-1.721-19.819-.312-25.033 1.254-.434.131-.726.537-.711.989.014.453.331.84.772.942.089.021 9.014 2.106 15.836 4.413.523.18 1.091-.104 1.268-.627s-.104-1.091-.627-1.268c-4.05-1.369-8.82-2.659-12.097-3.497 5.481-1.105 13.209-1.624 23.029.237.558.105.726.138.887.138.412 0 .782-.253.932-.637s.049-.821-.255-1.1c-3.161-2.904-6.501-5.427-8.689-6.995 7.496.272 17.313 4.736 19.265 6.494.368.333.928.343 1.31.024.383-.319.472-.871.21-1.294-1.578-2.548-3.232-4.889-4.602-6.725 2.249 1.29 4.805 2.894 7.036 4.292 4.746 2.977 6.483 4.025 7.342 4.105.366.036.704-.127.91-.42s.24-.674.089-.999c-1.461-3.135-3.124-6.086-4.456-8.304 2.945 2.159 6.442 5.062 9.244 7.388 3.919 3.254 4.894 4.029 5.467 4.17.371.086.762-.038 1.006-.331.245-.293.301-.699.146-1.048-1.037-2.325-2.122-4.468-3.064-6.227 2.508 2.243 5.116 5.025 6.931 6.959 1.625 1.732 2.156 2.29 2.519 2.495.314.179.702.172 1.013-.016.31-.189.492-.53.479-.893-.095-2.493-.414-4.691-.757-6.416 3.183 3.698 5.756 8.417 7.199 13.274l-1.109.199c-1.734.314-2.384.433-5.3.851-2.58.359-5.034 1.303-6.999 2.682-.333-.241-.686-.459-1.054-.652-3.445-1.806-7.461-.975-8.947 1.858-1.484 2.832.114 6.607 3.563 8.415.39.204.8.376 1.238.518-1.495 14.137-8.207 23.009-19.475 25.802.077-.121.155-.243.234-.367.795-1.24 1.695-2.646 1.96-4.263.063-.391-.109-.781-.44-.998-.331-.216-.759-.216-1.09-.003-6.15 3.98-11.503 5.821-16.378 7.057.852-2.39 1.667-4.874 1.994-5.973.122-.413-.033-.857-.386-1.104-.353-.246-.823-.241-1.169.017-3.749 2.782-9.01 5.674-13.481 7.479.973-1.366 2.087-3.191 2.627-5.319.101-.397-.051-.815-.383-1.056s-.777-.254-1.121-.035c-7.114 4.499-12.157 6.864-17.449 8.176-2.067.61-4.514.972-6.488 1.208 5.126-4.776 6.13-10.374 6.137-10.436.035-.341-.106-.677-.376-.889-.271-.214-.631-.271-.952-.158-2.772.979-5.235 1.98-7.07 2.769 3.142-4.113 7.57-8.422 11.619-11.201.37-.254.525-.725.379-1.149-.146-.426-.557-.69-1.007-.673-2.757.17-6.425 1.414-10.931 3.704 3.391-4.267 9.699-9.829 13.573-11.629.442-.205.672-.698.544-1.169-.126-.469-.583-.793-1.059-.733-3.573.336-6.888.861-9.258 1.291 3.495-3.152 7.464-6.374 16.914-9.26.452-.138.745-.573.704-1.043-.041-.471-.406-.849-.875-.905-3.769-.461-8.045-.534-11.262-.499 3.825-1.526 8.592-3.012 12.959-3.991.539-.121.878-.655.757-1.194-.121-.538-.654-.878-1.194-.757-6.582 1.476-13.783 3.974-17.918 6.215-.412.223-.613.702-.485 1.152.128.449.53.733 1.02.725.069-.004 5.507-.309 11.154-.045-7.319 2.847-10.772 5.986-13.876 8.809-.643.584-1.277 1.162-1.938 1.73-.349.3-.447.799-.24 1.209.208.41.667.629 1.116.523.044-.01 3.468-.789 8.105-1.438-5.126 3.7-11.052 9.782-12.599 13.324-.16.365-.087.791.185 1.082.271.292.692.395 1.066.261.047-.017.267-.126.619-.324 3.749-2.107 6.626-3.367 8.809-4.102-4.147 3.501-8.14 7.958-10.613 11.957-.234.378-.19.865.107 1.195.298.331.779.426 1.178.231.164-.079 3.657-1.756 8.332-3.506-.852 2.301-2.938 6.432-7.599 9.512-.406.269-.533.782-.337 1.229.162.368.542.591.936.591.082 0 .166-.01.248-.03.156-.039.825-.11 1.472-.18 2.147-.229 5.741-.611 8.664-1.475 4.808-1.19 9.415-3.217 15.418-6.824-.69 1.275-1.514 2.352-2.142 3.172-.557.727-.924 1.207-1.078 1.647-.124.356-.037.753.225 1.024s.657.373 1.016.261c4.357-1.353 10.01-4.144 14.585-7.142-.5 1.495-1.115 3.263-1.694 4.809-.129.345-.059.733.186 1.011.242.276.619.397.978.313 4.842-1.126 10.125-2.669 16.179-6.15-.182.301-.373.599-.562.894-.514.802-1.045 1.63-1.396 2.494-.137.337-.08.722.148 1.005.229.282.588.42.95.357 13.292-2.314 21.509-12.237 23.194-27.95.407-.032.913-.107 1.507-.276.531-.152.839-.705.688-1.236-.152-.532-.709-.834-1.236-.688-.975.28-1.583.221-1.665.21-.592-.133-1.109-.316-1.576-.561-2.472-1.296-3.692-3.86-2.72-5.715.973-1.856 3.777-2.311 6.247-1.016.473.248.91.548 1.3.893.012.011.028.015.041.025.011.009.016.022.027.03.009.007.838.64 1.032 1.67.09.48.51.815.981.815.062 0 .123-.006.186-.018.543-.102.9-.624.798-1.167-.155-.827-.521-1.479-.884-1.961 1.647-1.072 3.656-1.814 5.779-2.108 2.957-.424 3.616-.544 5.378-.863l1.556-.28c.537.753 1.007 1.494 1.386 2.252.697 1.347 1.19 2.766 1.465 4.213.356 1.92.339 3.872.32 5.938-.007.82-.014 1.642.003 2.463.06 2.428.365 5.971 2.316 8.706.952 1.338 2.734 2.279 5.283 2.807.441.729 1.108 1.327 1.892 1.716-1.056 1.524-4.589 4.543-8.943 4.562-1.389-.149-4.963-.958-5.691-3.012-.185-.521-.759-.792-1.276-.608-.521.185-.793.756-.608 1.276.852 2.404 3.618 3.501 5.528 3.985-1.137 1.017-2.992 1.864-9.13 2.327l-.281.025c-.55.056-.95.546-.895 1.096.053.516.487.899.994.899.033 0 .067-.002.102-.005l.234-.021c7.785-.586 9.413-1.789 11.169-3.701.081-.088.163-.178.248-.268 4.945-.198 9.394-3.72 10.557-6.049.09.005.182.015.271.015 1.886 0 3.508-1.084 3.938-2.776.263-1.02.043-2.092-.623-3.016zm-1.314 2.52c-.001.001-.001.003-.002.005-.241.953-1.464 1.486-2.728 1.183-.037-.009-.078-.016-.118-.021-.796-.22-1.461-.757-1.733-1.382-.135-.345-.163-.675-.082-.984.112-.438.441-.805.926-1.033.55-.26 1.21-.308 1.865-.14.654.17 1.21.532 1.562 1.022.313.433.422.912.31 1.35z"/><path d="m51.112 41.767c-.402.107-.696.453-.737.868s.18.812.555.995c.061.03 6.145 3.046 10.343 7.543.196.211.463.317.73.317.245 0 .489-.089.683-.27.403-.376.425-1.009.048-1.413-2.737-2.933-6.146-5.228-8.422-6.589 3.917-.364 7.885.678 11.003 2.976.442.328 1.071.234 1.397-.212.328-.444.233-1.07-.212-1.397-4.318-3.184-10.072-4.235-15.388-2.818z"/><path d="m58.333 58.374c-.387.124-.66.47-.691.874-.031.405.185.788.547.971.055.027 5.477 2.79 9.141 7.067.198.231.479.35.76.35.23 0 .462-.079.65-.24.42-.359.469-.991.109-1.41-2.414-2.818-5.463-4.982-7.507-6.258 3.558-.503 7.119.384 9.862 2.53.436.34 1.064.262 1.404-.172.34-.436.263-1.063-.172-1.404-3.883-3.036-9.158-3.899-14.103-2.308z"/><path d="m59.01 73.066c.426.35 1.056.289 1.408-.135.352-.426.291-1.057-.135-1.408-3.259-2.688-7.76-3.347-12.043-1.76-.371.138-.626.481-.65.877s.188.768.539.949c.045.022 4.503 2.351 7.455 6.076.198.249.49.379.785.379.217 0 .437-.07.62-.216.433-.344.506-.973.163-1.405-1.906-2.405-4.329-4.244-6.028-5.366 2.891-.47 5.729.228 7.886 2.009z"/><path d="m75.486 72.891c.475.283 1.088.127 1.371-.348.282-.475.127-1.088-.348-1.371-2.882-1.717-6.489-1.69-9.65.067-.346.192-.546.571-.51.966s.303.73.678.856c.036.012 3.677 1.253 6.339 3.725.192.179.437.268.681.268.269 0 .536-.107.732-.319.376-.405.353-1.037-.052-1.413-1.553-1.441-3.362-2.495-4.763-3.182 1.92-.476 3.88-.228 5.522.751z"/><path d="m84.275 43.128c.442.335 1.067.248 1.402-.189.334-.439.249-1.067-.189-1.402-3.325-2.532-7.801-3.305-11.97-2.062-.394.117-.675.463-.711.871-.035.409.183.799.55.981.046.023 4.613 2.327 7.712 5.811.197.223.472.336.747.336.236 0 .474-.083.664-.253.413-.367.45-.999.083-1.411-1.883-2.118-4.203-3.8-5.914-4.888 2.751-.195 5.477.567 7.626 2.206z"/><path d="m34.749 53.602c-.351.226-.525.645-.438 1.052.088.408.419.718.831.779.067.01 6.792 1.031 12.152 4.025.154.086.321.127.486.127.351 0 .69-.185.874-.513.27-.481.097-1.091-.386-1.36-3.502-1.956-7.449-3.102-10.032-3.703 3.62-1.547 7.717-1.761 11.387-.525.524.181 1.091-.105 1.267-.628.177-.523-.104-1.091-.628-1.267-5.083-1.715-10.882-.96-15.513 2.013z"/><path d="m26.643 71.826c-.271.316-.317.768-.116 1.133s.604.565 1.021.507c.067-.01 6.8-.966 12.796.362.072.016.146.023.217.023.459 0 .872-.317.976-.784.119-.539-.221-1.073-.761-1.192-3.918-.867-8.026-.831-10.672-.662 3.022-2.522 6.884-3.892 10.754-3.776.011.001.022.001.034.001.536 0 .98-.426.998-.967.019-.552-.414-1.015-.966-1.032-5.363-.183-10.701 2.209-14.281 6.387z"/><path d="m95.217 66.333c.471-.913 1.583-1.475 2.597-1.291 1.011.175 1.874 1.074 2.009 2.092.066.503.496.868.99.868.044 0 .088-.003.133-.009.547-.072.932-.575.859-1.123-.249-1.877-1.783-3.476-3.648-3.799-1.86-.32-3.85.661-4.717 2.346-.253.491-.061 1.094.431 1.347.489.256 1.094.061 1.346-.431z"/><path d="m97.325 91.596c-.374-.208-.752-.308-1.087-.396-.291-.077-.567-.15-.688-.263-1.122-1.038-2.417-2.955-3.285-4.847-.01-.023-.945-2.319-1.209-4.579-.064-.548-.539-.946-1.109-.877-.548.063-.941.561-.877 1.109.295 2.529 1.303 5.003 1.361 5.144 1 2.182 2.44 4.296 3.76 5.517.487.451 1.069.605 1.536.729.243.063.472.125.617.205.452.259.674.64.656.695-.681 1.152-8.569 1.879-11.13 1.037-.178-.151-.757-.808-1.654-2.36-.319-.552-.625-1.031-.951-1.542-.576-.901-1.229-1.924-2.142-3.678-.003-.005-.007-.008-.01-.013-.002-.004-.002-.008-.004-.012-1.11-1.993-.676-5.261-.672-5.293.075-.547-.306-1.052-.853-1.128-.545-.066-1.051.305-1.128.852-.019.136-.386 2.891.382 5.302-1.752.345-3.398.753-4.996 1.152-1.877.471-3.818.958-5.905 1.325-7.006 1.231-14.249 2.042-21.533 2.422-.765-.677-1.014-1.565-1.022-1.599-.131-.534-.669-.858-1.203-.734-.537.128-.869.667-.741 1.204.018.074.45 1.829 2.064 2.969.017.012.037.016.055.027.017.011.029.027.047.036l.123.065c.085.045.178.093.323.179.384.203.772.334 1.115.45.311.104.604.204.833.331.321.187.641.569.599.909-.073.584-1.187.673-1.526.687l-6.208.25c-1.289.046-2.417.032-3.156-.638-.526-.483-1.355-2.481-1.494-3.022-.024-.199-.107-.389-.243-.542-.188-.213-.456-.336-.739-.339-3.139-.035-5.713-.117-8.102-.258-.543-.039-1.024.389-1.057.939-.033.551.388 1.024.939 1.057 2.231.132 4.619.213 7.463.253.403 1.15 1.217 2.776 1.884 3.39 1.123 1.017 2.562 1.179 3.739 1.179.301 0 .585-.011.842-.021l6.21-.25c1.968-.077 3.251-.987 3.433-2.437.111-.892-.269-1.697-.822-2.281 6.267-.438 12.481-1.195 18.524-2.257 2.158-.38 4.134-.875 6.045-1.354 1.716-.43 3.483-.873 5.364-1.226.776 1.445 1.361 2.36 1.886 3.181.311.485.602.94.905 1.466 1.675 2.896 2.397 3.138 2.647 3.221 2.364.85 9.472.586 12.247-.761.804-.391 1.312-.89 1.509-1.481.43-1.275-.469-2.469-1.562-3.094z"/></g></g><g id="Komodo"/><g id="Ferret"/><g id="Hipotatamus"/><g id="Gorilla"/><g id="Koala"/><g id="Panda"/><g id="Rhinoceros"/><g id="Racoon"/><g id="Donkey"/><g id="Cow"/><g id="Goat"/><g id="Deer"/><g id="Jaguar"/><g id="Fox"/><g id="Tiger"/><g id="Heyna"/><g id="Polar_Bear"/><g id="Squirrel"/><g id="Monkey"/><g id="Giraffe"/><g id="Elephant"/><g id="Lion"/><g id="Horse"/></svg>